<svg width="158" height="33" viewBox="0 0 158 33" fill="none" xmlns="http://www.w3.org/2000/svg">
<mask id="path-1-inside-1_54_257" fill="white">
<path d="M52.0981 20.9983C51.1762 20.9983 50.4251 20.8617 49.8446 20.5885C49.2642 20.3154 48.8374 19.9569 48.5642 19.513C48.2911 19.035 48.1545 18.5058 48.1545 17.9253C48.1545 17.3449 48.2569 16.7474 48.4618 16.1328C48.6667 15.5182 48.9569 14.9207 49.3325 14.3403C49.708 13.7598 50.1861 13.2477 50.7665 12.8038C51.3469 12.3258 52.0127 11.9502 52.7639 11.6771C53.515 11.4039 54.3516 11.2674 55.2734 11.2674H63.8264L63.6215 11.8819C63.4508 12.2917 63.1947 12.7355 62.8533 13.2135C62.546 13.6916 62.1704 14.1354 61.7266 14.5451C61.2827 14.9549 60.8047 15.3134 60.2925 15.6207C59.8145 15.8938 59.3194 16.0645 58.8073 16.1328C59.2853 16.2011 59.678 16.3889 59.9852 16.6962C60.3267 17.0035 60.5828 17.362 60.7535 17.7717C60.9242 18.1814 61.0095 18.6253 61.0095 19.1033C61.0437 19.5472 60.9925 19.974 60.8559 20.3837L60.651 20.9983H52.0981ZM29.7682 20.9983L32.9436 11.2674H43.9036L40.7283 20.9983H29.7682ZM59.5755 24.4809C59.1999 25.5735 58.6536 26.5978 57.9366 27.5538C57.2538 28.4757 56.4514 29.2951 55.5295 30.0122C54.6076 30.695 53.6004 31.2413 52.5078 31.651C51.4494 32.0608 50.3738 32.2656 49.2813 32.2656H26.1319L29.3073 22.4835H60.2413L59.5755 24.4809ZM64.2873 9.78212H33.4045L36.5799 -3.34251e-06H59.7292C60.7876 -3.34251e-06 61.7266 0.204858 62.546 0.614581C63.3655 1.0243 64.0142 1.58767 64.4922 2.30469C64.9702 2.98756 65.2604 3.807 65.3628 4.76302C65.4653 5.71904 65.3287 6.74334 64.9531 7.83594L64.2873 9.78212ZM79.4755 32.2656C78.3829 32.2656 77.4268 32.0608 76.6074 31.651C75.8221 31.2413 75.1904 30.695 74.7124 30.0122C74.2344 29.2951 73.9442 28.4757 73.8418 27.5538C73.7393 26.5978 73.8588 25.5735 74.2003 24.4809L74.8661 22.4835H93.4572L90.2819 32.2656H79.4755ZM97.0423 13.2135C96.7009 14.3061 96.1716 15.3304 95.4546 16.2865C94.7376 17.2083 93.9182 18.0278 92.9963 18.7448C92.0744 19.4277 91.0672 19.974 89.9746 20.3837C88.9161 20.7934 87.8406 20.9983 86.748 20.9983H62.7281L65.9034 11.2674H97.7081L97.0423 13.2135ZM98.169 9.78212H66.3643L69.5397 -3.34251e-06H93.5597C94.6181 -3.34251e-06 95.5571 0.204858 96.3765 0.614581C97.1959 1.0243 97.8447 1.58767 98.3227 2.30469C98.8007 2.98756 99.0909 3.807 99.1933 4.76302C99.2958 5.71904 99.1592 6.74334 98.7836 7.83594L98.169 9.78212ZM59.0918 32.2656L62.2671 22.4835H73.0735L69.8982 32.2656H59.0918ZM99.6563 9.78212L102.832 -3.34251e-06H131.615L128.439 9.78212H99.6563ZM101.346 32.2656L108.158 11.2674H119.067L112.255 32.2656H101.346Z"/>
</mask>
<path d="M52.0981 20.9983C51.1762 20.9983 50.4251 20.8617 49.8446 20.5885C49.2642 20.3154 48.8374 19.9569 48.5642 19.513C48.2911 19.035 48.1545 18.5058 48.1545 17.9253C48.1545 17.3449 48.2569 16.7474 48.4618 16.1328C48.6667 15.5182 48.9569 14.9207 49.3325 14.3403C49.708 13.7598 50.1861 13.2477 50.7665 12.8038C51.3469 12.3258 52.0127 11.9502 52.7639 11.6771C53.515 11.4039 54.3516 11.2674 55.2734 11.2674H63.8264L63.6215 11.8819C63.4508 12.2917 63.1947 12.7355 62.8533 13.2135C62.546 13.6916 62.1704 14.1354 61.7266 14.5451C61.2827 14.9549 60.8047 15.3134 60.2925 15.6207C59.8145 15.8938 59.3194 16.0645 58.8073 16.1328C59.2853 16.2011 59.678 16.3889 59.9852 16.6962C60.3267 17.0035 60.5828 17.362 60.7535 17.7717C60.9242 18.1814 61.0095 18.6253 61.0095 19.1033C61.0437 19.5472 60.9925 19.974 60.8559 20.3837L60.651 20.9983H52.0981ZM29.7682 20.9983L32.9436 11.2674H43.9036L40.7283 20.9983H29.7682ZM59.5755 24.4809C59.1999 25.5735 58.6536 26.5978 57.9366 27.5538C57.2538 28.4757 56.4514 29.2951 55.5295 30.0122C54.6076 30.695 53.6004 31.2413 52.5078 31.651C51.4494 32.0608 50.3738 32.2656 49.2813 32.2656H26.1319L29.3073 22.4835H60.2413L59.5755 24.4809ZM64.2873 9.78212H33.4045L36.5799 -3.34251e-06H59.7292C60.7876 -3.34251e-06 61.7266 0.204858 62.546 0.614581C63.3655 1.0243 64.0142 1.58767 64.4922 2.30469C64.9702 2.98756 65.2604 3.807 65.3628 4.76302C65.4653 5.71904 65.3287 6.74334 64.9531 7.83594L64.2873 9.78212ZM79.4755 32.2656C78.3829 32.2656 77.4268 32.0608 76.6074 31.651C75.8221 31.2413 75.1904 30.695 74.7124 30.0122C74.2344 29.2951 73.9442 28.4757 73.8418 27.5538C73.7393 26.5978 73.8588 25.5735 74.2003 24.4809L74.8661 22.4835H93.4572L90.2819 32.2656H79.4755ZM97.0423 13.2135C96.7009 14.3061 96.1716 15.3304 95.4546 16.2865C94.7376 17.2083 93.9182 18.0278 92.9963 18.7448C92.0744 19.4277 91.0672 19.974 89.9746 20.3837C88.9161 20.7934 87.8406 20.9983 86.748 20.9983H62.7281L65.9034 11.2674H97.7081L97.0423 13.2135ZM98.169 9.78212H66.3643L69.5397 -3.34251e-06H93.5597C94.6181 -3.34251e-06 95.5571 0.204858 96.3765 0.614581C97.1959 1.0243 97.8447 1.58767 98.3227 2.30469C98.8007 2.98756 99.0909 3.807 99.1933 4.76302C99.2958 5.71904 99.1592 6.74334 98.7836 7.83594L98.169 9.78212ZM59.0918 32.2656L62.2671 22.4835H73.0735L69.8982 32.2656H59.0918ZM99.6563 9.78212L102.832 -3.34251e-06H131.615L128.439 9.78212H99.6563ZM101.346 32.2656L108.158 11.2674H119.067L112.255 32.2656H101.346Z" fill="#FDFDF5"/>
<path d="M49.8446 20.5885L49.5125 21.2943V21.2943L49.8446 20.5885ZM48.5642 19.513L47.887 19.9L47.8933 19.911L47.8999 19.9218L48.5642 19.513ZM48.4618 16.1328L49.2018 16.3795V16.3795L48.4618 16.1328ZM49.3325 14.3403L48.6776 13.9165H48.6776L49.3325 14.3403ZM50.7665 12.8038L51.2403 13.4234L51.2515 13.4149L51.2623 13.4059L50.7665 12.8038ZM52.7639 11.6771L53.0304 12.4101H53.0305L52.7639 11.6771ZM63.8264 11.2674L64.5664 11.514L64.9086 10.4874H63.8264V11.2674ZM63.6215 11.8819L64.3415 12.1819L64.3525 12.1556L64.3615 12.1286L63.6215 11.8819ZM62.8533 13.2135L62.2186 12.7602L62.2075 12.7757L62.1972 12.7917L62.8533 13.2135ZM61.7266 14.5451L62.2556 15.1183L62.2556 15.1183L61.7266 14.5451ZM60.2925 15.6207L60.6795 16.2979L60.6867 16.2938L60.6938 16.2895L60.2925 15.6207ZM58.8073 16.1328L58.7042 15.3597L58.697 16.905L58.8073 16.1328ZM59.9852 16.6962L59.4337 17.2477L59.4482 17.2622L59.4635 17.2759L59.9852 16.6962ZM61.0095 19.1033H60.2295V19.1333L60.2318 19.1631L61.0095 19.1033ZM60.8559 20.3837L61.5959 20.6303V20.6303L60.8559 20.3837ZM60.651 20.9983V21.7783H61.2132L61.391 21.2449L60.651 20.9983ZM29.7682 20.9983L29.0267 20.7563L28.6932 21.7783H29.7682V20.9983ZM32.9436 11.2674V10.4874H32.3776L32.2021 11.0254L32.9436 11.2674ZM43.9036 11.2674L44.6452 11.5093L44.9787 10.4874H43.9036V11.2674ZM40.7283 20.9983V21.7783H41.2943L41.4698 21.2402L40.7283 20.9983ZM59.5755 24.4809L60.3132 24.7345L60.3155 24.7276L59.5755 24.4809ZM57.9366 27.5538L57.3126 27.0858L57.3099 27.0895L57.9366 27.5538ZM55.5295 30.0122L55.9938 30.6389L56.0012 30.6335L56.0084 30.6278L55.5295 30.0122ZM52.5078 31.651L52.2339 30.9207L52.2262 30.9236L52.5078 31.651ZM26.1319 32.2656L25.3901 32.0248L25.0587 33.0456H26.1319V32.2656ZM29.3073 22.4835V21.7035H28.7404L28.5654 22.2427L29.3073 22.4835ZM60.2413 22.4835L60.9813 22.7302L61.3235 21.7035H60.2413V22.4835ZM64.2873 9.78212V10.5621H64.8449L65.0253 10.0346L64.2873 9.78212ZM33.4045 9.78212L32.6626 9.54129L32.3313 10.5621H33.4045V9.78212ZM36.5799 -3.33786e-06V-0.780003H36.013L35.838 -0.240827L36.5799 -3.33786e-06ZM64.4922 2.30469L63.8432 2.73735L63.8481 2.74473L63.8532 2.75199L64.4922 2.30469ZM64.9531 7.83594L64.2155 7.58237L64.2151 7.58346L64.9531 7.83594ZM52.0981 20.9983V20.2183C51.2445 20.2183 50.6181 20.0905 50.1767 19.8828L49.8446 20.5885L49.5125 21.2943C50.232 21.6329 51.1079 21.7783 52.0981 21.7783V20.9983ZM49.8446 20.5885L50.1767 19.8828C49.7017 19.6592 49.4056 19.3919 49.2285 19.1042L48.5642 19.513L47.8999 19.9218C48.2692 20.5219 48.8267 20.9715 49.5125 21.2943L49.8446 20.5885ZM48.5642 19.513L49.2415 19.126C49.0394 18.7723 48.9345 18.3777 48.9345 17.9253H48.1545H47.3745C47.3745 18.6339 47.5428 19.2977 47.887 19.9L48.5642 19.513ZM48.1545 17.9253H48.9345C48.9345 17.4379 49.0204 16.9237 49.2018 16.3795L48.4618 16.1328L47.7218 15.8862C47.4935 16.5711 47.3745 17.2519 47.3745 17.9253H48.1545ZM48.4618 16.1328L49.2018 16.3795C49.3845 15.8313 49.6451 15.2929 49.9873 14.764L49.3325 14.3403L48.6776 13.9165C48.2687 14.5485 47.9488 15.2052 47.7218 15.8862L48.4618 16.1328ZM49.3325 14.3403L49.9873 14.764C50.3115 14.263 50.7269 13.816 51.2403 13.4234L50.7665 12.8038L50.2927 12.1842C49.6452 12.6794 49.1046 13.2567 48.6776 13.9165L49.3325 14.3403ZM50.7665 12.8038L51.2623 13.4059C51.7701 12.9877 52.3573 12.6549 53.0304 12.4101L52.7639 11.6771L52.4973 10.944C51.6681 11.2456 50.9237 11.6639 50.2706 12.2017L50.7665 12.8038ZM52.7639 11.6771L53.0305 12.4101C53.6842 12.1724 54.4288 12.0474 55.2734 12.0474V11.2674V10.4874C54.2744 10.4874 53.3459 10.6355 52.4973 10.944L52.7639 11.6771ZM55.2734 11.2674V12.0474H63.8264V11.2674V10.4874H55.2734V11.2674ZM63.8264 11.2674L63.0864 11.0207L62.8816 11.6353L63.6215 11.8819L64.3615 12.1286L64.5664 11.514L63.8264 11.2674ZM63.6215 11.8819L62.9015 11.5819C62.7593 11.9233 62.5362 12.3156 62.2186 12.7602L62.8533 13.2135L63.488 13.6669C63.8533 13.1555 64.1423 12.66 64.3415 12.1819L63.6215 11.8819ZM62.8533 13.2135L62.1972 12.7917C61.9278 13.2107 61.5958 13.6043 61.1975 13.972L61.7266 14.5451L62.2556 15.1183C62.745 14.6665 63.1642 14.1724 63.5094 13.6353L62.8533 13.2135ZM61.7266 14.5451L61.1975 13.972C60.7924 14.3459 60.3571 14.6723 59.8912 14.9518L60.2925 15.6207L60.6938 16.2895C61.2523 15.9545 61.773 15.5638 62.2556 15.1183L61.7266 14.5451ZM60.2925 15.6207L59.9055 14.9434C59.5093 15.1699 59.11 15.3055 58.7042 15.3597L58.8073 16.1328L58.9104 16.906C59.5289 16.8235 60.1198 16.6177 60.6795 16.2979L60.2925 15.6207ZM58.8073 16.1328L58.697 16.905C59.0275 16.9522 59.259 17.073 59.4337 17.2477L59.9852 16.6962L60.5368 16.1446C60.0969 15.7048 59.5431 15.45 58.9176 15.3607L58.8073 16.1328ZM59.9852 16.6962L59.4635 17.2759C59.722 17.5086 59.9088 17.7726 60.0335 18.0717L60.7535 17.7717L61.4735 17.4717C61.2567 16.9514 60.9314 16.4983 60.507 16.1164L59.9852 16.6962ZM60.7535 17.7717L60.0335 18.0717C60.1616 18.3792 60.2295 18.7203 60.2295 19.1033H61.0095H61.7896C61.7896 18.5303 61.6868 17.9836 61.4735 17.4717L60.7535 17.7717ZM61.0095 19.1033L60.2318 19.1631C60.2583 19.5066 60.2186 19.829 60.1159 20.137L60.8559 20.3837L61.5959 20.6303C61.7663 20.1189 61.8291 19.5877 61.7873 19.0435L61.0095 19.1033ZM60.8559 20.3837L60.1159 20.137L59.9111 20.7516L60.651 20.9983L61.391 21.2449L61.5959 20.6303L60.8559 20.3837ZM60.651 20.9983V20.2183H52.0981V20.9983V21.7783H60.651V20.9983ZM29.7682 20.9983L30.5097 21.2402L33.6851 11.5093L32.9436 11.2674L32.2021 11.0254L29.0267 20.7563L29.7682 20.9983ZM32.9436 11.2674V12.0474H43.9036V11.2674V10.4874H32.9436V11.2674ZM43.9036 11.2674L43.1621 11.0254L39.9868 20.7563L40.7283 20.9983L41.4698 21.2402L44.6452 11.5093L43.9036 11.2674ZM40.7283 20.9983V20.2183H29.7682V20.9983V21.7783H40.7283V20.9983ZM59.5755 24.4809L58.8379 24.2273C58.4897 25.2403 57.9825 26.1927 57.3126 27.0858L57.9366 27.5538L58.5606 28.0218C59.3248 27.0029 59.9102 25.9067 60.3132 24.7345L59.5755 24.4809ZM57.9366 27.5538L57.3099 27.0895C56.6699 27.9534 55.9176 28.7222 55.0506 29.3965L55.5295 30.0122L56.0084 30.6278C56.9852 29.8681 57.8376 28.998 58.5634 28.0181L57.9366 27.5538ZM55.5295 30.0122L55.0652 29.3854C54.2027 30.0243 53.2597 30.536 52.2339 30.9207L52.5078 31.651L52.7817 32.3814C53.9411 31.9466 55.0126 31.3658 55.9938 30.6389L55.5295 30.0122ZM52.5078 31.651L52.2262 30.9236C51.2541 31.3 50.2738 31.4856 49.2813 31.4856V32.2656V33.0456C50.4739 33.0456 51.6447 32.8216 52.7894 32.3784L52.5078 31.651ZM49.2813 32.2656V31.4856H26.1319V32.2656V33.0456H49.2813V32.2656ZM26.1319 32.2656L26.8738 32.5064L30.0492 22.7243L29.3073 22.4835L28.5654 22.2427L25.3901 32.0248L26.1319 32.2656ZM29.3073 22.4835V23.2635H60.2413V22.4835V21.7035H29.3073V22.4835ZM60.2413 22.4835L59.5013 22.2368L58.8355 24.2342L59.5755 24.4809L60.3155 24.7276L60.9813 22.7302L60.2413 22.4835ZM64.2873 9.78212V9.00212H33.4045V9.78212V10.5621H64.2873V9.78212ZM33.4045 9.78212L34.1464 10.0229L37.3218 0.24082L36.5799 -3.33786e-06L35.838 -0.240827L32.6626 9.54129L33.4045 9.78212ZM36.5799 -3.33786e-06V0.779997H59.7292V-3.33786e-06V-0.780003H36.5799V-3.33786e-06ZM59.7292 -3.33786e-06V0.779997C60.6854 0.779997 61.5017 0.9645 62.1972 1.31223L62.546 0.614581L62.8948 -0.0830716C61.9514 -0.554783 60.8899 -0.780003 59.7292 -0.780003V-3.33786e-06ZM62.546 0.614581L62.1972 1.31223C62.9032 1.66522 63.4453 2.14045 63.8432 2.73735L64.4922 2.30469L65.1412 1.87202C64.5831 1.0349 63.8277 0.383385 62.8948 -0.0830716L62.546 0.614581ZM64.4922 2.30469L63.8532 2.75199C64.2448 3.31137 64.4967 4.00079 64.5873 4.84612L65.3629 4.76302L66.1384 4.67992C66.0241 3.61321 65.6956 2.66375 65.1312 1.85739L64.4922 2.30469ZM65.3629 4.76302L64.5873 4.84612C64.6753 5.6679 64.5613 6.5764 64.2155 7.58237L64.9531 7.83594L65.6908 8.0895C66.0961 6.91028 66.2552 5.77018 66.1384 4.67992L65.3629 4.76302ZM64.9531 7.83594L64.2151 7.58346L63.5493 9.52964L64.2873 9.78212L65.0253 10.0346L65.6911 8.08841L64.9531 7.83594ZM76.6074 31.651L76.2465 32.3427L76.2586 32.3487L76.6074 31.651ZM74.7124 30.0122L74.0634 30.4448L74.0684 30.4522L74.0734 30.4595L74.7124 30.0122ZM73.8418 27.5538L73.0662 27.6369L73.0665 27.64L73.8418 27.5538ZM74.2003 24.4809L73.4603 24.2342L73.458 24.2412L73.4558 24.2482L74.2003 24.4809ZM74.8661 22.4835V21.7035H74.3039L74.1261 22.2368L74.8661 22.4835ZM93.4572 22.4835L94.1991 22.7243L94.5305 21.7035H93.4572V22.4835ZM90.2819 32.2656V33.0456H90.8488L91.0238 32.5064L90.2819 32.2656ZM97.0423 13.2135L96.3043 12.9611L96.3009 12.9709L96.2978 12.9809L97.0423 13.2135ZM95.4546 16.2865L96.0704 16.7654L96.0786 16.7545L95.4546 16.2865ZM92.9963 18.7448L93.4606 19.3716L93.4679 19.3661L93.4752 19.3605L92.9963 18.7448ZM89.9746 20.3837L89.7007 19.6533L89.693 19.6563L89.9746 20.3837ZM62.7281 20.9983L61.9865 20.7563L61.6531 21.7783H62.7281V20.9983ZM65.9034 11.2674V10.4874H65.3375L65.1619 11.0254L65.9034 11.2674ZM97.7081 11.2674L98.4461 11.5198L98.7993 10.4874H97.7081V11.2674ZM98.169 9.78212V10.5621H98.7407L98.9128 10.017L98.169 9.78212ZM66.3643 9.78212L65.6225 9.54129L65.2911 10.5621H66.3643V9.78212ZM69.5397 -3.33786e-06V-0.780003H68.9728L68.7978 -0.240827L69.5397 -3.33786e-06ZM96.3765 0.614581L96.7253 -0.0830716V-0.0830719L96.3765 0.614581ZM98.3227 2.30469L97.6737 2.73735L97.6786 2.74473L97.6837 2.75199L98.3227 2.30469ZM99.1933 4.76302L99.9689 4.67993V4.67992L99.1933 4.76302ZM98.7836 7.83594L98.046 7.58237L98.0428 7.59167L98.0398 7.60105L98.7836 7.83594ZM59.0918 32.2656L58.3499 32.0248L58.0185 33.0456H59.0918V32.2656ZM62.2671 22.4835V21.7035H61.7003L61.5252 22.2427L62.2671 22.4835ZM73.0735 22.4835L73.8154 22.7243L74.1468 21.7035H73.0735V22.4835ZM69.8982 32.2656V33.0456H70.4651L70.6401 32.5064L69.8982 32.2656ZM79.4755 32.2656V31.4856C78.4808 31.4856 77.6484 31.2995 76.9562 30.9534L76.6074 31.651L76.2586 32.3487C77.2053 32.822 78.2849 33.0456 79.4755 33.0456V32.2656ZM76.6074 31.651L76.9682 30.9595C76.2867 30.604 75.7532 30.1388 75.3514 29.5649L74.7124 30.0122L74.0734 30.4595C74.6277 31.2513 75.3575 31.8787 76.2466 32.3426L76.6074 31.651ZM74.7124 30.0122L75.3614 29.5795C74.9578 28.9741 74.7067 28.2753 74.617 27.4677L73.8418 27.5538L73.0665 27.64C73.1817 28.6761 73.511 29.6162 74.0634 30.4448L74.7124 30.0122ZM73.8418 27.5538L74.6173 27.4707C74.5282 26.6392 74.6292 25.7233 74.9448 24.7136L74.2003 24.4809L73.4558 24.2482C73.0884 25.4237 72.9504 26.5564 73.0662 27.6369L73.8418 27.5538ZM74.2003 24.4809L74.9403 24.7276L75.6061 22.7302L74.8661 22.4835L74.1261 22.2368L73.4603 24.2342L74.2003 24.4809ZM74.8661 22.4835V23.2635H93.4572V22.4835V21.7035H74.8661V22.4835ZM93.4572 22.4835L92.7153 22.2427L89.54 32.0248L90.2819 32.2656L91.0238 32.5064L94.1991 22.7243L93.4572 22.4835ZM90.2819 32.2656V31.4856H79.4755V32.2656V33.0456H90.2819V32.2656ZM97.0423 13.2135L96.2978 12.9809C95.984 13.9851 95.4967 14.9303 94.8306 15.8185L95.4546 16.2865L96.0786 16.7545C96.8465 15.7306 97.4177 14.6272 97.7868 13.4462L97.0423 13.2135ZM95.4546 16.2865L94.8389 15.8076C94.1617 16.6783 93.3882 17.4518 92.5174 18.1291L92.9963 18.7448L93.4752 19.3605C94.4482 18.6037 95.3136 17.7383 96.0703 16.7653L95.4546 16.2865ZM92.9963 18.7448L92.532 18.118C91.6695 18.7569 90.7265 19.2687 89.7007 19.6533L89.9746 20.3837L90.2485 21.114C91.4079 20.6792 92.4794 20.0984 93.4606 19.3716L92.9963 18.7448ZM89.9746 20.3837L89.693 19.6563C88.7208 20.0326 87.7406 20.2183 86.748 20.2183V20.9983V21.7783C87.9406 21.7783 89.1115 21.5542 90.2562 21.1111L89.9746 20.3837ZM86.748 20.9983V20.2183H62.7281V20.9983V21.7783H86.748V20.9983ZM62.7281 20.9983L63.4696 21.2402L66.6449 11.5093L65.9034 11.2674L65.1619 11.0254L61.9865 20.7563L62.7281 20.9983ZM65.9034 11.2674V12.0474H97.7081V11.2674V10.4874H65.9034V11.2674ZM97.7081 11.2674L96.9701 11.0149L96.3043 12.9611L97.0423 13.2135L97.7803 13.466L98.4461 11.5198L97.7081 11.2674ZM98.169 9.78212V9.00212H66.3643V9.78212V10.5621H98.169V9.78212ZM66.3643 9.78212L67.1062 10.0229L70.2816 0.24082L69.5397 -3.33786e-06L68.7978 -0.240827L65.6225 9.54129L66.3643 9.78212ZM69.5397 -3.33786e-06V0.779997H93.5597V-3.33786e-06V-0.780003H69.5397V-3.33786e-06ZM93.5597 -3.33786e-06V0.779997C94.5158 0.779997 95.3322 0.9645 96.0277 1.31223L96.3765 0.614581L96.7253 -0.0830719C95.7819 -0.554783 94.7204 -0.780003 93.5597 -0.780003V-3.33786e-06ZM96.3765 0.614581L96.0277 1.31223C96.7337 1.66522 97.2757 2.14045 97.6737 2.73735L98.3227 2.30469L98.9717 1.87202C98.4136 1.0349 97.6582 0.383385 96.7253 -0.0830716L96.3765 0.614581ZM98.3227 2.30469L97.6837 2.75199C98.0752 3.31137 98.3272 4.00079 98.4178 4.84612L99.1933 4.76302L99.9689 4.67992C99.8546 3.61321 99.5261 2.66375 98.9617 1.85739L98.3227 2.30469ZM99.1933 4.76302L98.4178 4.84612C98.5058 5.6679 98.3918 6.5764 98.046 7.58237L98.7836 7.83594L99.5213 8.0895C99.9266 6.91028 100.086 5.77018 99.9689 4.67993L99.1933 4.76302ZM98.7836 7.83594L98.0398 7.60105L97.4252 9.54723L98.169 9.78212L98.9128 10.017L99.5274 8.07082L98.7836 7.83594ZM59.0918 32.2656L59.8337 32.5064L63.009 22.7243L62.2671 22.4835L61.5252 22.2427L58.3499 32.0248L59.0918 32.2656ZM62.2671 22.4835V23.2635H73.0735V22.4835V21.7035H62.2671V22.4835ZM73.0735 22.4835L72.3317 22.2427L69.1563 32.0248L69.8982 32.2656L70.6401 32.5064L73.8154 22.7243L73.0735 22.4835ZM69.8982 32.2656V31.4856H59.0918V32.2656V33.0456H69.8982V32.2656ZM99.6563 9.78212L98.9144 9.54129L98.583 10.5621H99.6563V9.78212ZM102.832 -3.33786e-06V-0.780003H102.265L102.09 -0.240827L102.832 -3.33786e-06ZM131.615 -3.33786e-06L132.356 0.24082L132.688 -0.780003H131.615V-3.33786e-06ZM128.439 9.78212V10.5621H129.006L129.181 10.0229L128.439 9.78212ZM101.346 32.2656L100.604 32.0249L100.273 33.0456H101.346V32.2656ZM108.158 11.2674V10.4874H107.591L107.416 11.0267L108.158 11.2674ZM119.067 11.2674L119.809 11.508L120.14 10.4874H119.067V11.2674ZM112.255 32.2656V33.0456H112.822L112.997 32.5063L112.255 32.2656ZM99.6563 9.78212L100.398 10.0229L103.574 0.24082L102.832 -3.33786e-06L102.09 -0.240827L98.9144 9.54129L99.6563 9.78212ZM102.832 -3.33786e-06V0.779997H131.615V-3.33786e-06V-0.780003H102.832V-3.33786e-06ZM131.615 -3.33786e-06L130.873 -0.240827L127.697 9.54129L128.439 9.78212L129.181 10.0229L132.356 0.24082L131.615 -3.33786e-06ZM128.439 9.78212V9.00212H99.6563V9.78212V10.5621H128.439V9.78212ZM101.346 32.2656L102.088 32.5063L108.9 11.508L108.158 11.2674L107.416 11.0267L100.604 32.0249L101.346 32.2656ZM108.158 11.2674V12.0474H119.067V11.2674V10.4874H108.158V11.2674ZM119.067 11.2674L118.325 11.0267L111.513 32.0249L112.255 32.2656L112.997 32.5063L119.809 11.508L119.067 11.2674ZM112.255 32.2656V31.4856H101.346V32.2656V33.0456H112.255V32.2656Z" fill="#809DB1" mask="url(#path-1-inside-1_54_257)"/>
<path d="M0 23.2656H27.4999L26.5 26.2656H0V23.2656Z" fill="#FDFDF5"/>
<path d="M0 28.2656H25.907L24.6623 31.4368H0V28.2656Z" fill="#FDFDF5"/>
<path d="M157.5 8.9868H130L131 5.9868H157.5V8.9868Z" fill="#FDFDF5"/>
<path d="M157.5 3.9868H131.593L132.838 0.815621H157.5V3.9868Z" fill="#FDFDF5"/>
</svg>
